<svg width="32" height="24" viewBox="0 0 32 24" fill="none" xmlns="http://www.w3.org/2000/svg">
<g clip-path="url(#clip0_3_1525)">
<path opacity="0.07" d="M29.4737 0H2.52632C1.09474 0 0 1.3 0 3V21C0 22.7 1.17895 24 2.52632 24H29.4737C30.9053 24 32 22.7 32 21V3C32 1.3 30.8211 0 29.4737 0Z" fill="black"/>
<path d="M29.4737 1C30.4 1 31.1579 1.9 31.1579 3V21C31.1579 22.1 30.4 23 29.4737 23H2.52631C1.6 23 0.842102 22.1 0.842102 21V3C0.842102 1.9 1.6 1 2.52631 1H29.4737Z" fill="#006FCF"/>
<path d="M7.55451 10.268L8.2063 12.144H6.90778L7.55451 10.268ZM21.0914 10.346H18.5844V11.173H21.0509V12.412H18.5895V13.334H21.0964V14.073L22.8455 11.828L21.0964 9.488L21.0914 10.346ZM9.24883 8.006H12.613L13.36 9.941L14.0522 8H22.7848L23.6926 9.19L24.6316 8H28.6425L25.6791 11.852L28.6122 15.68H24.5415L23.6337 14.49L22.6863 15.68H8.4463L8.0303 14.49H7.07872L6.66188 15.68H3.36841L6.13557 8H9.02399L9.24883 8.006ZM16.544 9.084H14.6585L13.3954 12.62L12.0269 9.084H10.1558V13.894L8.42104 9.084H6.74272L4.73683 14.596H6.0463L6.4623 13.406H8.64841L9.06441 14.596H11.3549V10.661L12.8295 14.602H13.8316L15.2968 10.673V14.603H16.5246L16.5448 9.083L16.544 9.084ZM24.4093 11.852L26.5406 9.084H25.0063L23.6581 10.81L22.3545 9.084H17.3911V14.602H22.2838L23.6429 12.864L24.9465 14.602H26.5255L24.4093 11.852Z" fill="white"/>
</g>
<defs>
<clipPath id="clip0_3_1525">
<rect width="32" height="24" fill="white"/>
</clipPath>
</defs>
</svg>
