<svg width="32" height="24" viewBox="0 0 32 24" fill="none" xmlns="http://www.w3.org/2000/svg">
<g clip-path="url(#clip0_3_1545)">
<path opacity="0.07" d="M29.4737 0H2.52632C1.09474 0 0 1.3 0 3V21C0 22.7 1.17895 24 2.52632 24H29.4737C30.9053 24 32 22.7 32 21V3C32 1.3 30.8211 0 29.4737 0Z" fill="black"/>
<path d="M29.4737 1C30.4 1 31.1579 1.9 31.1579 3V21C31.1579 22.1 30.4 23 29.4737 23H2.52631C1.6 23 0.842102 22.1 0.842102 21V3C0.842102 1.9 1.6 1 2.52631 1H29.4737Z" fill="white"/>
<path d="M3.00631 7.16004H1.6842V12.66H3.00631C3.70526 12.66 4.21052 12.46 4.65684 12.03C5.18736 11.51 5.49894 10.73 5.49894 9.92004C5.49052 8.29004 4.47157 7.16004 3.00631 7.16004ZM4.06736 11.3C3.78105 11.6 3.41894 11.74 2.82947 11.74H2.58526V8.10004H2.82947C3.41052 8.10004 3.7642 8.22004 4.06736 8.54004C4.37894 8.87004 4.5642 9.38004 4.5642 9.91004C4.5642 10.44 4.37894 10.97 4.06736 11.3ZM5.91157 7.16004H6.81263V12.66H5.91157V7.16004ZM9.01894 9.27004C8.47999 9.03004 8.31999 8.87004 8.31999 8.58004C8.31999 8.23004 8.60631 7.97004 8.99368 7.97004C9.26315 7.97004 9.49052 8.10004 9.71789 8.42004L10.1895 7.69004C9.8021 7.29004 9.33894 7.08004 8.82526 7.08004C8.00841 7.08004 7.37684 7.76004 7.37684 8.66004C7.37684 9.42004 7.67157 9.81004 8.51368 10.17C8.86736 10.32 9.0442 10.42 9.13684 10.48C9.31368 10.62 9.40631 10.82 9.40631 11.05C9.40631 11.5 9.11157 11.83 8.70736 11.83C8.27789 11.83 7.93263 11.57 7.7221 11.1L7.14105 11.77C7.55368 12.5 8.05894 12.82 8.74105 12.82C9.67578 12.82 10.341 12.08 10.341 11.01C10.3579 10.12 10.0463 9.72004 9.01894 9.27004ZM10.6358 9.92004C10.6358 11.54 11.7053 12.79 13.0779 12.79C13.4653 12.79 13.8021 12.7 14.2063 12.47V11.21C13.8442 11.64 13.5242 11.81 13.12 11.81C12.2105 11.81 11.5621 11.03 11.5621 9.91004C11.5621 8.85004 12.2274 8.02004 13.0779 8.02004C13.5074 8.02004 13.8358 8.20004 14.2063 8.64004V7.38004C13.8105 7.14004 13.4821 7.04004 13.0947 7.04004C11.7389 7.04004 10.6358 8.32004 10.6358 9.92004ZM21.381 10.86L20.1432 7.16004H19.1579L21.12 12.8H21.6084L23.6042 7.16004H22.6274L21.381 10.86ZM24.0168 12.66H26.5768V11.73H24.9179V10.25H26.5179V9.32004H24.9179V8.10004H26.5768V7.16004H24.0168V12.66ZM30.1558 8.79004C30.1558 7.76004 29.5579 7.17004 28.5137 7.17004H27.1747V12.67H28.0758V10.46H28.1937L29.44 12.67H30.5516L29.0947 10.35C29.7768 10.18 30.1558 9.63004 30.1558 8.79004ZM28.3368 9.70004H28.0758V8.03004H28.3537C28.9179 8.03004 29.221 8.31004 29.221 8.85004C29.221 9.40004 28.9179 9.70004 28.3368 9.70004Z" fill="#231F20"/>
<path d="M16.9768 12.86C17.6314 12.86 18.2592 12.5512 18.7221 12.0016C19.185 11.4519 19.445 10.7064 19.445 9.92905C19.445 9.1517 19.185 8.40619 18.7221 7.85652C18.2592 7.30685 17.6314 6.99805 16.9768 6.99805C16.3222 6.99805 15.6944 7.30685 15.2315 7.85652C14.7686 8.40619 14.5086 9.1517 14.5086 9.92905C14.5086 10.7064 14.7686 11.4519 15.2315 12.0016C15.6944 12.5512 16.3222 12.86 16.9768 12.86Z" fill="url(#paint0_linear_3_1545)"/>
<path opacity="0.65" d="M16.9768 12.86C17.6314 12.86 18.2592 12.5512 18.7221 12.0016C19.185 11.4519 19.445 10.7064 19.445 9.92905C19.445 9.1517 19.185 8.40619 18.7221 7.85652C18.2592 7.30685 17.6314 6.99805 16.9768 6.99805C16.3222 6.99805 15.6944 7.30685 15.2315 7.85652C14.7686 8.40619 14.5086 9.1517 14.5086 9.92905C14.5086 10.7064 14.7686 11.4519 15.2315 12.0016C15.6944 12.5512 16.3222 12.86 16.9768 12.86Z" fill="url(#paint1_linear_3_1545)"/>
<path d="M30.7958 7.50596C30.7958 7.40596 30.7368 7.35596 30.6442 7.35596H30.5095V7.83596H30.6105V7.64596L30.7284 7.83596H30.8463L30.7116 7.63596C30.7621 7.62596 30.7958 7.57596 30.7958 7.50596ZM30.6274 7.57596H30.6105V7.44596H30.6274C30.6779 7.44596 30.7031 7.46596 30.7031 7.50596C30.7031 7.55596 30.6779 7.57596 30.6274 7.57596Z" fill="#231F20"/>
<path d="M30.6611 7.17578C30.4674 7.17578 30.3074 7.36578 30.3074 7.59578C30.3074 7.82578 30.4674 8.01578 30.6611 8.01578C30.8547 8.01578 31.0147 7.82578 31.0147 7.59578C31.0147 7.36578 30.8547 7.17578 30.6611 7.17578ZM30.6611 7.94578C30.5095 7.94578 30.3747 7.79578 30.3747 7.59578C30.3747 7.40578 30.5011 7.24578 30.6611 7.24578C30.8126 7.24578 30.939 7.40578 30.939 7.59578C30.939 7.78578 30.8126 7.94578 30.6611 7.94578Z" fill="#231F20"/>
<path d="M31.1579 12.9839C31.1579 12.9839 22.8126 19.8729 7.55872 22.9999H29.4728C29.9172 22.9999 30.3435 22.7914 30.659 22.4198C30.9745 22.0481 31.1535 21.5435 31.157 21.0159L31.1772 17.9959L31.1579 12.9839Z" fill="#F48120"/>
</g>
<defs>
<linearGradient id="paint0_linear_3_1545" x1="18.2374" y1="12.275" x2="16.0881" y2="9.44079" gradientUnits="userSpaceOnUse">
<stop stop-color="#F89F20"/>
<stop offset="0.25" stop-color="#F79A20"/>
<stop offset="0.533" stop-color="#F68D20"/>
<stop offset="0.62" stop-color="#F58720"/>
<stop offset="0.723" stop-color="#F48120"/>
<stop offset="1" stop-color="#F37521"/>
</linearGradient>
<linearGradient id="paint1_linear_3_1545" x1="17.9688" y1="12.232" x2="14.7294" y2="6.89971" gradientUnits="userSpaceOnUse">
<stop stop-color="#F58720"/>
<stop offset="0.359" stop-color="#E16F27"/>
<stop offset="0.703" stop-color="#D4602C"/>
<stop offset="0.982" stop-color="#D05B2E"/>
</linearGradient>
<clipPath id="clip0_3_1545">
<rect width="32" height="24" fill="white"/>
</clipPath>
</defs>
</svg>
