<svg width="32" height="24" viewBox="0 0 32 24" fill="none" xmlns="http://www.w3.org/2000/svg">
<g clip-path="url(#clip0_3_1554)">
<path opacity="0.07" d="M29.4737 0H2.52632C1.09474 0 0 1.3 0 3V21C0 22.7 1.17895 24 2.52632 24H29.4737C30.9053 24 32 22.7 32 21V3C32 1.3 30.8211 0 29.4737 0Z" fill="black"/>
<path d="M29.4737 1C30.4 1 31.1579 1.9 31.1579 3V21C31.1579 22.1 30.4 23 29.4737 23H2.52631C1.6 23 0.842102 22.1 0.842102 21V3C0.842102 1.9 1.6 1 2.52631 1H29.4737Z" fill="white"/>
<path d="M15.2362 11.9762V15.1762H14.379V7.27623H16.6451C16.9166 7.27077 17.1863 7.3291 17.4388 7.44786C17.6913 7.56661 17.9215 7.74346 18.1162 7.96823C18.3007 8.17262 18.4494 8.41818 18.5539 8.69087C18.6584 8.96355 18.7166 9.25802 18.7252 9.55743C18.7338 9.85685 18.6926 10.1553 18.604 10.4358C18.5154 10.7164 18.3812 10.9734 18.2089 11.1922L18.1162 11.3082C17.7204 11.7552 17.1916 11.9982 16.6451 11.9822L15.2362 11.9762ZM15.2362 8.24423V11.0322H16.6661C16.9836 11.0442 17.2901 10.8972 17.5124 10.6282C17.6715 10.4314 17.7782 10.1834 17.8195 9.91506C17.8608 9.64673 17.8347 9.36992 17.7445 9.11906C17.6543 8.8682 17.504 8.65436 17.3122 8.50415C17.1205 8.35394 16.8958 8.27398 16.6661 8.27423L15.2362 8.24423ZM20.6964 9.59223C21.2438 9.56223 21.7794 9.78023 22.1937 10.2052C22.5684 10.6352 22.768 11.2352 22.7411 11.8542V15.1882H21.9251V14.4222H21.8838C21.7375 14.7095 21.5305 14.9465 21.2835 15.1098C21.0364 15.2731 20.7577 15.357 20.475 15.3532C20.0134 15.371 19.5633 15.1805 19.2152 14.8202C19.0502 14.6605 18.918 14.4582 18.8286 14.2289C18.7392 13.9995 18.6948 13.749 18.699 13.4962C18.6892 13.2408 18.731 12.9864 18.8208 12.754C18.9106 12.5216 19.0458 12.318 19.2152 12.1602C19.6307 11.8054 20.1336 11.6243 20.6451 11.6452C21.0804 11.6252 21.5124 11.7382 21.8998 11.9762V11.7682C21.9027 11.5963 21.8725 11.4258 21.8117 11.2697C21.7508 11.1136 21.6609 10.976 21.5487 10.8672C21.3232 10.6239 21.028 10.4922 20.7234 10.4992C20.5022 10.4968 20.2841 10.5613 20.0898 10.6868C19.8954 10.8122 19.7312 10.9944 19.6127 11.2162L18.859 10.6522C19.0636 10.304 19.3399 10.0238 19.6615 9.83828C19.9832 9.65274 20.3394 9.56803 20.6964 9.59223ZM19.6127 13.5202C19.6106 13.6497 19.6354 13.7779 19.6849 13.8933C19.7344 14.0088 19.8071 14.108 19.8964 14.1822C20.0842 14.3582 20.3175 14.4512 20.5575 14.4452C20.9188 14.4442 21.2649 14.2752 21.5225 13.9732C21.7794 13.6872 21.9251 13.2882 21.9251 12.8702C21.6009 12.5965 21.207 12.4644 20.8101 12.4962C20.502 12.4818 20.1981 12.5848 19.9428 12.7902C19.8416 12.8706 19.7587 12.9791 19.7011 13.1064C19.6436 13.2337 19.6132 13.3758 19.6127 13.5202ZM27.4324 9.77023L24.5777 17.5602H23.6952L24.7739 14.8322L22.9011 9.77023H23.8299L25.1874 13.6552L26.5087 9.77023H27.4324Z" fill="#5F6368"/>
<path d="M11.7777 11.2838C11.7777 10.9758 11.7575 10.6678 11.7162 10.3638H8.10358V12.1108H10.1676C10.1256 12.3884 10.0368 12.6531 9.90654 12.889C9.77631 13.125 9.60731 13.3273 9.40968 13.4838V14.6178H10.6425C11.0174 14.1871 11.3121 13.6678 11.5076 13.0936C11.7031 12.5194 11.7951 11.9028 11.7777 11.2838Z" fill="#4285F4"/>
<path d="M8.10862 15.7209C9.04026 15.7513 9.94664 15.359 10.6434 14.6239L9.40883 13.4839C9.1122 13.7098 8.77611 13.8523 8.42611 13.9008C8.07612 13.9492 7.72143 13.9022 7.38903 13.7633C7.05663 13.6245 6.75526 13.3975 6.50785 13.0995C6.26045 12.8016 6.07351 12.4406 5.96125 12.0439H4.69641V13.2139C5.01292 13.967 5.49982 14.6004 6.10252 15.0432C6.70522 15.486 7.39989 15.7207 8.10862 15.7209Z" fill="#34A853"/>
<path d="M5.96128 12.05C5.8011 11.4873 5.8011 10.8777 5.96128 10.315V9.14502H4.69643C4.42678 9.77647 4.28625 10.4745 4.28625 11.1825C4.28625 11.8905 4.42678 12.5886 4.69643 13.22L5.96128 12.05Z" fill="#FBBC04"/>
<path d="M8.10862 8.44019C8.65347 8.42837 9.18016 8.6728 9.57388 9.12019L10.6686 7.82719C9.9706 7.0492 9.04475 6.62485 8.08757 6.64419C7.38304 6.64838 6.69324 6.88419 6.09467 7.32547C5.4961 7.76674 5.01212 8.39625 4.69641 9.14419L5.96125 10.3152C6.10915 9.77527 6.39585 9.304 6.78105 8.96766C7.16624 8.63132 7.63054 8.44685 8.10862 8.44019Z" fill="#EA4335"/>
</g>
<defs>
<clipPath id="clip0_3_1554">
<rect width="32" height="24" fill="white"/>
</clipPath>
</defs>
</svg>
