<svg width="32" height="24" viewBox="0 0 32 24" fill="none" xmlns="http://www.w3.org/2000/svg">
<g clip-path="url(#clip0_3_1530)">
<path d="M28.9576 0H3.04241C2.93445 0 2.82631 0 2.71855 0.00067947C2.62757 0.00158543 2.53679 0.00271788 2.44581 0.00566225C2.24764 0.012004 2.04776 0.0260463 1.85207 0.0677205C1.65582 0.107648 1.46568 0.182074 1.2879 0.288548C0.930503 0.504411 0.640007 0.849374 0.458228 1.27378C0.368406 1.48497 0.305724 1.71095 0.272268 1.94419C0.236793 2.17679 0.225158 2.41393 0.219818 2.64903C0.217493 2.75697 0.216095 2.86493 0.215622 2.97291C0.21524 3.10065 0.21524 3.22884 0.21524 3.35726V20.6425C0.21524 20.7709 0.21524 20.8989 0.215622 21.0273C0.216194 21.1351 0.217338 21.2432 0.219818 21.3512C0.225158 21.5858 0.236984 21.8232 0.272268 22.0556C0.305656 22.2888 0.368274 22.5148 0.458038 22.726C0.548287 22.9369 0.66609 23.1296 0.80707 23.2967C0.94781 23.4642 1.11004 23.6041 1.28771 23.7112C1.46833 23.8206 1.65333 23.8902 1.85226 23.9325C2.04776 23.974 2.24764 23.988 2.44581 23.9943C2.53679 23.9968 2.62757 23.9982 2.71855 23.9989C2.82631 23.9998 2.93445 23.9998 3.04241 23.9998H28.9576C29.0654 23.9998 29.1735 23.9998 29.2813 23.9989C29.3721 23.9984 29.4629 23.9968 29.5542 23.9943C29.752 23.988 29.9519 23.974 30.148 23.9325C30.3442 23.8925 30.5344 23.818 30.7121 23.7112C31.0693 23.4951 31.3598 23.1502 31.5418 22.726C31.6339 22.5115 31.6923 22.2918 31.7276 22.0556C31.763 21.8232 31.7745 21.5858 31.7798 21.3512C31.7823 21.2432 31.7836 21.1351 31.784 21.0273C31.7848 20.8989 31.7848 20.7709 31.7848 20.6425V3.35749C31.7848 3.22907 31.7848 3.10087 31.784 2.97268C31.7837 2.86478 31.7823 2.75689 31.7798 2.64903C31.7745 2.41393 31.763 2.17679 31.7276 1.94419C31.6943 1.71091 31.6317 1.4849 31.5418 1.27378C31.3599 0.849448 31.0695 0.504513 30.7121 0.288548C30.5343 0.182184 30.3442 0.107836 30.148 0.067947C29.9519 0.0260463 29.752 0.0122305 29.5542 0.00588874C29.4633 0.00314533 29.3723 0.00148432 29.2813 0.000905959C29.1735 0 29.0654 0 28.9576 0Z" fill="black"/>
<path d="M28.9576 0.799805L29.2765 0.800484C29.3627 0.801164 29.4491 0.802296 29.5359 0.805014C29.6871 0.809997 29.8638 0.819736 30.0285 0.854842C30.1716 0.885418 30.2918 0.931848 30.407 1.00161C30.6375 1.1408 30.8248 1.36345 30.9418 1.63736C31.0001 1.77326 31.039 1.91504 31.0648 2.08649C31.0941 2.27992 31.1023 2.49033 31.1064 2.67084C31.1088 2.77276 31.11 2.87468 31.1102 2.97886C31.1111 3.10502 31.1111 3.23095 31.1111 3.35733V20.6426C31.1111 20.769 31.1111 20.8949 31.1104 21.0235C31.11 21.1255 31.1088 21.2274 31.1065 21.3293C31.1023 21.5096 31.0941 21.72 31.0644 21.9157C31.0428 22.0713 31.0013 22.2222 30.9414 22.363C30.8242 22.637 30.6366 22.8597 30.4058 22.9988C30.2914 23.0681 30.1716 23.1145 30.0299 23.1448C29.8619 23.1804 29.6776 23.1901 29.5389 23.1947C29.4518 23.1969 29.365 23.1985 29.2759 23.199C29.1701 23.1999 29.0637 23.1999 28.9576 23.1999H3.0382C2.9333 23.1999 2.8284 23.1999 2.72159 23.199C2.63576 23.1985 2.54993 23.1972 2.46411 23.1949C2.32221 23.1904 2.13797 23.1804 1.97127 23.1451C1.83947 23.119 1.71176 23.0694 1.59248 22.9979C1.47807 22.9288 1.37364 22.8386 1.28312 22.7306C1.19232 22.623 1.11648 22.4989 1.05844 22.363C0.998506 22.2214 0.956965 22.0698 0.935232 21.9134C0.905479 21.718 0.897087 21.5085 0.893272 21.3295C0.891118 21.2272 0.889846 21.1249 0.889458 21.0226L0.888885 20.7221V3.27806L0.889267 2.97796C0.889661 2.8755 0.890932 2.77304 0.893081 2.67061C0.897278 2.49123 0.905479 2.28173 0.935423 2.08468C0.957199 1.9286 0.99874 1.77733 1.05863 1.63601C1.11662 1.50056 1.19214 1.3769 1.28369 1.26841C1.37443 1.16049 1.47897 1.07029 1.59344 1.00115C1.71242 0.930167 1.83973 0.880844 1.97108 0.854842C2.13606 0.819736 2.31286 0.809997 2.4643 0.805014C2.55051 0.802296 2.63691 0.801164 2.72255 0.800484L3.0424 0.799805H28.9576Z" fill="white"/>
<path d="M8.51344 8.10171C8.78122 7.70422 8.9628 7.17039 8.91492 6.625C8.52317 6.6481 8.0452 6.93189 7.76827 7.32984C7.51975 7.67048 7.29984 8.22651 7.35706 8.74902C7.79687 8.79432 8.23631 8.48811 8.51344 8.10171Z" fill="black"/>
<path d="M8.90996 8.85119C8.27102 8.80589 7.72821 9.28152 7.42323 9.28152C7.11807 9.28152 6.65097 8.87384 6.14573 8.88493C5.48829 8.89626 4.87834 9.33791 4.54457 10.04C3.85833 11.4443 4.36338 13.528 5.03093 14.6717C5.35497 15.238 5.74558 15.8608 6.26017 15.8384C6.74653 15.8158 6.93706 15.4647 7.52794 15.4647C8.11863 15.4647 8.29028 15.8384 8.80506 15.8271C9.33872 15.8157 9.67249 15.2608 9.99654 14.6946C10.3685 14.0491 10.5205 13.4263 10.53 13.3923C10.5205 13.381 9.50083 12.9165 9.4913 11.5235C9.48176 10.3571 10.292 9.80222 10.3301 9.76802C9.87256 8.96443 9.15771 8.87384 8.90977 8.85119" fill="black"/>
<path d="M15.2776 7.27295C16.6657 7.27295 17.6325 8.40925 17.6325 10.0635C17.6325 11.7237 16.6459 12.8659 15.2429 12.8659H13.706V15.7686H12.5956V7.27295H15.2776ZM13.706 11.759H14.9801C15.9471 11.759 16.4971 11.1409 16.4971 10.0694C16.4971 8.99812 15.9469 8.38569 14.985 8.38569H13.706V11.759Z" fill="black"/>
<path d="M17.9079 14.008C17.9079 12.9188 18.6069 12.2949 19.8959 12.2006L21.2791 12.1005V11.6294C21.2791 10.9409 20.8974 10.564 20.2182 10.564C19.6579 10.564 19.2512 10.9053 19.1673 11.4292H18.1656C18.1955 10.3285 19.0679 9.52783 20.248 9.52783C21.5171 9.52783 22.345 10.3167 22.345 11.5413V15.7683H21.3189V14.7498H21.2941C21.0015 15.415 20.3569 15.8329 19.6579 15.8329C18.6268 15.8329 17.9079 15.1031 17.9079 14.008ZM21.2791 13.4606V12.9836L20.0447 13.0778C19.3504 13.1308 18.9888 13.4368 18.9888 13.9725C18.9888 14.4907 19.3655 14.8263 19.9554 14.8263C20.7088 14.8263 21.2791 14.2551 21.2791 13.4606Z" fill="black"/>
<path d="M23.2886 18.0408V17.0225C23.358 17.034 23.5264 17.0458 23.6157 17.0458C24.1064 17.0458 24.3841 16.7989 24.5527 16.1627L24.6519 15.7861L22.7728 9.60449H23.9328L25.2418 14.6203H25.2666L26.5754 9.60449H27.7058L25.7573 16.098C25.311 17.5876 24.8005 18.0763 23.7198 18.0763C23.6355 18.0763 23.3627 18.0646 23.2886 18.0408Z" fill="black"/>
</g>
<defs>
<clipPath id="clip0_3_1530">
<rect width="32" height="24" fill="white"/>
</clipPath>
</defs>
</svg>
