<svg width="32" height="24" viewBox="0 0 32 24" fill="none" xmlns="http://www.w3.org/2000/svg">
<g clip-path="url(#clip0_3_1562)">
<path opacity="0.07" d="M29.4737 0H2.52632C1.09474 0 0 1.3 0 3V21C0 22.7 1.17895 24 2.52632 24H29.4737C30.9053 24 32 22.7 32 21V3C32 1.3 30.8211 0 29.4737 0Z" fill="black"/>
<path d="M29.4737 1C30.4 1 31.1579 1.9 31.1579 3V21C31.1579 22.1 30.4 23 29.4737 23H2.52631C1.6 23 0.842102 22.1 0.842102 21V3C0.842102 1.9 1.6 1 2.52631 1H29.4737Z" fill="white"/>
<path d="M12.6316 19C15.8871 19 18.5263 15.866 18.5263 12C18.5263 8.13401 15.8871 5 12.6316 5C9.37598 5 6.73682 8.13401 6.73682 12C6.73682 15.866 9.37598 19 12.6316 19Z" fill="#EB001B"/>
<path d="M19.3684 19C22.624 19 25.2632 15.866 25.2632 12C25.2632 8.13401 22.624 5 19.3684 5C16.1129 5 13.4737 8.13401 13.4737 12C13.4737 15.866 16.1129 19 19.3684 19Z" fill="#F79E1B"/>
<path d="M18.5263 11.9998C18.5263 9.5998 17.5158 7.4998 16 6.2998C14.4842 7.5998 13.4737 9.6998 13.4737 11.9998C13.4737 14.2998 14.4842 16.4998 16 17.6998C17.5158 16.4998 18.5263 14.3998 18.5263 11.9998Z" fill="#FF5F00"/>
</g>
<defs>
<clipPath id="clip0_3_1562">
<rect width="32" height="24" fill="white"/>
</clipPath>
</defs>
</svg>
