<svg width="32" height="24" viewBox="0 0 32 24" fill="none" xmlns="http://www.w3.org/2000/svg">
<g clip-path="url(#clip0_3_1541)">
<path opacity="0.07" d="M29.4737 0H2.52632C1.09474 0 0 1.3 0 3V21C0 22.7 1.17895 24 2.52632 24H29.4737C30.9053 24 32 22.7 32 21V3C32 1.3 30.8211 0 29.4737 0Z" fill="black"/>
<path d="M29.4737 1C30.4 1 31.1579 1.9 31.1579 3V21C31.1579 22.1 30.4 23 29.4737 23H2.52631C1.6 23 0.842102 22.1 0.842102 21V3C0.842102 1.9 1.6 1 2.52631 1H29.4737Z" fill="white"/>
<path d="M10.1052 12V15.7C10.1052 16 9.93682 16 9.68419 15.9C8.08419 15.1 7.15788 12.6 7.74735 10.5C8.08419 9.4 8.75788 8.5 9.68419 8.1C10.021 7.9 10.1052 8 10.1052 8.3V12ZM11.7895 12V8.3C11.7895 8 11.7895 8 12.0421 8.1C13.8105 8.9 14.7368 11.4 14.0631 13.5C13.7263 14.6 13.0526 15.5 12.1263 15.9C11.7895 16.1 11.7895 16 11.7895 15.7V12ZM17.8526 5H10.9473C14.1473 5 16.6737 8.1 16.6737 12C16.6737 15.9 14.1473 19 10.9473 19H17.8526C21.0526 19 23.5789 15.9 23.5789 12C23.5789 8.1 21.0526 5 17.8526 5Z" fill="#3086C8"/>
</g>
<defs>
<clipPath id="clip0_3_1541">
<rect width="32" height="24" fill="white"/>
</clipPath>
</defs>
</svg>
