<svg width="32" height="24" viewBox="0 0 32 24" fill="none" xmlns="http://www.w3.org/2000/svg">
<g clip-path="url(#clip0_3_1572)">
<path opacity="0.07" d="M29.4737 0H2.52632C1.09474 0 0 1.3 0 3V21C0 22.7 1.17895 24 2.52632 24H29.4737C30.9053 24 32 22.7 32 21V3C32 1.3 30.8211 0 29.4737 0Z" fill="black"/>
<path d="M29.4737 1C30.4 1 31.1579 1.9 31.1579 3V21C31.1579 22.1 30.4 23 29.4737 23H2.52631C1.6 23 0.842102 22.1 0.842102 21V3C0.842102 1.9 1.6 1 2.52631 1H29.4737Z" fill="white"/>
<path d="M23.8316 10.1H23.5789C23.2421 11.1 22.9895 11.6 22.7368 13.1H24.3368C24.0842 11.6 24.0842 10.9 23.8316 10.1ZM26.2737 16H24.8421C24.7579 16 24.7579 16 24.6737 15.9L24.5052 15L24.421 14.8H22.4C22.3158 14.8 22.2316 14.8 22.2316 15L21.9789 15.9C21.9789 16 21.8947 16 21.8947 16H20.1263L20.2947 15.5L22.7368 8.7C22.7368 8.2 22.9895 8 23.4105 8H24.6737C24.7579 8 24.8421 8 24.8421 8.2L26.021 14.7C26.1052 15.1 26.1895 15.4 26.1895 15.8C26.2737 15.9 26.2737 15.9 26.2737 16ZM14.9895 15.7L15.3263 13.9C15.4105 13.9 15.4947 14 15.4947 14C16.0842 14.3 16.6737 14.5 17.2631 14.4C17.4316 14.4 17.6842 14.3 17.8526 14.2C18.2737 14 18.2737 13.5 17.9368 13.1C17.7684 12.9 17.5158 12.8 17.2631 12.6C16.9263 12.4 16.5895 12.2 16.3368 11.9C15.3263 10.9 15.6631 9.5 16.2526 8.8C16.7579 8.4 17.0105 8 17.6842 8C18.6947 8 19.7895 8 20.2947 8.2H20.3789C20.2947 8.8 20.2105 9.3 20.0421 9.9C19.621 9.7 19.2 9.5 18.7789 9.5C18.5263 9.5 18.2737 9.5 18.021 9.6C17.8526 9.6 17.7684 9.7 17.6842 9.8C17.5158 10 17.5158 10.3 17.6842 10.5L18.1052 10.9C18.4421 11.1 18.7789 11.3 19.0316 11.5C19.4526 11.8 19.8737 12.3 19.9579 12.9C20.1263 13.8 19.8737 14.6 19.2 15.2C18.7789 15.6 18.6105 15.8 18.021 15.8C16.8421 15.8 15.9158 15.9 15.1579 15.6C15.0737 15.8 15.0737 15.8 14.9895 15.7ZM12.0421 16C12.1263 15.3 12.1263 15.3 12.2105 15C12.6316 12.8 13.0526 10.5 13.3895 8.3C13.4737 8.1 13.4737 8 13.6421 8H15.1579C14.9895 9.2 14.821 10.1 14.5684 11.2C14.3158 12.7 14.0631 14.2 13.7263 15.7C13.7263 15.9 13.6421 15.9 13.4737 15.9M4.21051 8.2C4.21051 8.1 4.37893 8 4.46314 8H7.3263C7.74735 8 8.08419 8.3 8.1684 8.8L8.9263 13.2C8.9263 13.3 8.9263 13.3 9.01051 13.4C9.01051 13.3 9.09472 13.3 9.09472 13.3L10.8631 8.2C10.7789 8.1 10.8631 8 10.9474 8H12.7158C12.7158 8.1 12.7158 8.1 12.6316 8.2L10.021 15.5C9.93683 15.7 9.93683 15.8 9.85262 15.9C9.7684 16 9.59998 15.9 9.43156 15.9H8.1684C8.08419 15.9 7.99998 15.9 7.99998 15.7L6.65262 9.5C6.48419 9.3 6.23156 9 5.89472 8.9C5.38946 8.6 4.46314 8.4 4.29472 8.4L4.21051 8.2Z" fill="#142688"/>
</g>
<defs>
<clipPath id="clip0_3_1572">
<rect width="32" height="24" fill="white"/>
</clipPath>
</defs>
</svg>
